# xmcd
#
# Track frame offsets:
#	150
#	10214
#	22190
#	40127
#	52992
#	62291
#	81068
#	94344
#	106675
#	119031
#	138905
#
# Disc length: 1971 seconds
# Revision: 0
# Processed by: cddbd v1.5.2PL0 Copyright (c) Steve Scherf et al.
# Submitted via: dBpowerAMP V12.0
#
DISCID=8707b10b
DTITLE=The Jim Jones Revue - Burning Your House Down
DYEAR=2011
DGENRE=Pop/Rock
TTITLE0=Dishonest Jon
TTITLE1=High Horse
TTITLE2=Foghorn
TTITLE3=Big Len
TTITLE4=Premeditated
TTITLE5=Burning Your House Down
TTITLE6=Shoot First
TTITLE7=Elemental
TTITLE8=Killin' Spree
TTITLE9=Righteous Wrong
TTITLE10=Stop the People
EXTD=
EXTT0=
EXTT1=
EXTT2=
EXTT3=
EXTT4=
EXTT5=
EXTT6=
EXTT7=
EXTT8=
EXTT9=
EXTT10=
PLAYORDER=
